<?xml version="1.0" standalone="no"?>
<!DOCTYPE svg PUBLIC "-//W3C//DTD SVG 20010904//EN"
 "http://www.w3.org/TR/2001/REC-SVG-20010904/DTD/svg10.dtd">
<svg version="1.0" xmlns="http://www.w3.org/2000/svg"
 width="600.000000pt" height="600.000000pt" viewBox="0 0 600.000000 600.000000"
 preserveAspectRatio="xMidYMid meet">

<g transform="translate(0.000000,600.000000) scale(0.100000,-0.100000)"
fill="#000000" stroke="none">
<path d="M5115 3650 c-33 -5 -100 -14 -150 -20 -149 -20 -317 -49 -372 -65
-72 -21 -143 -72 -176 -126 -46 -75 -54 -156 -33 -345 33 -303 63 -460 102
-538 54 -108 134 -174 229 -191 37 -6 39 -5 20 9 -19 15 -18 15 25 16 73 0
454 50 572 75 246 51 324 179 289 471 -57 468 -86 577 -177 652 -68 56 -200
81 -329 62z m15 -392 c59 -30 73 -70 68 -191 -3 -68 -9 -93 -24 -115 -38 -50
-65 -56 -251 -60 l-173 -4 0 -59 0 -59 -80 0 -80 0 0 255 0 255 248 0 c237 0
250 -1 292 -22z m280 -233 l0 -255 -80 0 -80 0 0 255 0 255 80 0 80 0 0 -255z"/>
<path d="M4750 3090 l0 -61 143 3 142 3 3 43 c5 69 -2 72 -154 72 l-134 0 0
-60z"/>
<path d="M330 3271 l0 -311 95 0 95 0 0 80 0 80 213 0 c188 0 217 3 255 20 63
29 82 76 82 210 0 130 -18 177 -76 206 -36 17 -67 19 -351 22 l-313 3 0 -310z
m542 141 c17 -17 17 -105 -1 -125 -11 -15 -37 -17 -182 -17 l-169 0 0 81 0 80
170 -3 c122 -2 173 -7 182 -16z"/>
<path d="M2280 3270 l0 -310 79 0 79 0 4 140 c4 178 8 183 133 189 79 3 85 2
109 -23 25 -25 26 -28 26 -166 l0 -140 80 0 80 0 0 158 c0 131 -3 164 -19 198
-28 60 -76 86 -172 92 -117 7 -163 -3 -204 -44 l-35 -35 0 126 0 125 -80 0
-80 0 0 -310z"/>
<path d="M1780 3450 l0 -49 -127 -3 -128 -3 -63 -145 c-34 -80 -66 -148 -71
-153 -4 -4 -34 61 -67 145 l-60 153 -87 3 c-48 1 -87 -1 -87 -5 0 -4 42 -102
94 -218 91 -205 94 -210 125 -213 36 -4 36 -4 16 -41 -16 -33 -33 -41 -81 -41
l-34 0 0 -55 0 -55 75 0 c123 0 122 -1 236 238 55 114 117 243 138 287 l40 80
0 -47 1 -48 39 0 39 0 7 -126 c7 -117 9 -128 34 -156 22 -25 38 -31 101 -40
91 -13 196 -3 238 22 43 26 62 59 69 119 l6 51 -77 0 -76 0 0 -28 c0 -15 -5
-33 -12 -40 -16 -16 -90 -16 -106 0 -8 8 -12 46 -12 105 l0 92 128 3 127 3 3
58 3 57 -131 0 -130 0 0 50 0 50 -85 0 -85 0 0 -50z"/>
<path d="M3063 3400 c-87 -18 -117 -56 -128 -160 -10 -98 8 -196 41 -231 44
-46 82 -54 269 -54 187 0 225 8 269 54 36 38 54 153 38 249 -22 129 -52 145
-282 148 -91 2 -184 -1 -207 -6z m306 -134 c29 -26 30 -137 2 -165 -36 -36
-195 -39 -248 -5 -20 13 -23 23 -23 83 0 100 18 112 157 108 73 -2 96 -7 112
-21z"/>
<path d="M3855 3396 c-22 -9 -46 -24 -54 -36 -19 -29 -31 -25 -31 10 l0 30
-75 0 -75 0 0 -220 0 -220 79 0 79 0 4 140 c3 130 5 141 26 162 20 20 32 23
111 23 131 0 131 0 131 -182 l0 -143 80 0 80 0 0 160 c0 187 -8 215 -70 256
-37 24 -52 28 -143 31 -73 2 -113 -1 -142 -11z"/>
<path d="M2212 2880 c-104 -25 -110 -134 -9 -161 84 -23 98 -31 95 -53 -3 -18
-9 -21 -53 -19 -27 1 -63 3 -79 5 -19 2 -32 -3 -40 -15 -14 -22 0 -32 71 -48
94 -22 183 22 183 90 0 42 -20 59 -95 84 -56 18 -70 26 -70 42 0 18 6 20 70
18 65 -3 84 4 85 29 0 23 -104 41 -158 28z"/>
<path d="M1570 2735 l0 -145 40 0 40 0 0 145 0 145 -40 0 -40 0 0 -145z"/>
<path d="M1730 2735 l0 -145 40 0 40 0 0 92 0 93 93 -93 c83 -83 96 -92 130
-92 l37 0 0 145 0 145 -40 0 -39 0 -3 -89 -3 -89 -93 89 c-81 76 -99 89 -128
89 l-34 0 0 -145z"/>
<path d="M2410 2855 c0 -24 3 -25 55 -25 l55 0 0 -120 0 -120 40 0 40 0 0 120
0 120 55 0 c52 0 55 1 55 25 l0 25 -150 0 -150 0 0 -25z"/>
<path d="M2760 2735 l0 -145 45 0 45 0 0 145 0 145 -45 0 -45 0 0 -145z"/>
<path d="M2900 2855 c0 -23 3 -25 50 -25 l50 0 0 -120 0 -120 45 0 45 0 0 120
0 120 55 0 c52 0 55 1 55 25 l0 25 -150 0 -150 0 0 -25z"/>
<path d="M3240 2788 c0 -109 16 -152 70 -183 46 -26 141 -27 193 -1 55 27 67
58 67 176 l0 100 -45 0 -45 0 0 -104 c0 -97 -2 -106 -22 -120 -31 -22 -84 -20
-108 4 -17 17 -20 33 -20 120 l0 100 -45 0 -45 0 0 -92z"/>
<path d="M3612 2858 c3 -20 10 -23 56 -26 l52 -3 0 -120 0 -119 45 0 45 0 0
120 0 120 55 0 c52 0 55 1 55 25 l0 25 -156 0 -155 0 3 -22z"/>
<path d="M3970 2735 l0 -145 120 0 120 0 0 25 c0 24 -2 25 -75 25 l-75 0 0 35
0 35 60 0 c57 0 60 1 60 25 0 24 -3 25 -60 25 l-60 0 0 35 0 35 75 0 c73 0 75
1 75 25 l0 25 -120 0 -120 0 0 -145z"/>
<path d="M2123 2440 c0 -30 2 -43 4 -27 2 15 2 39 0 55 -2 15 -4 2 -4 -28z"/>
<path d="M3213 2435 c0 -33 2 -45 4 -27 2 18 2 45 0 60 -2 15 -4 0 -4 -33z"/>
<path d="M1991 2433 l-1 -53 33 1 c30 2 30 2 5 6 -35 5 -39 40 -5 46 22 4 22
4 0 6 -14 1 -23 9 -26 24 -2 12 -5 -2 -6 -30z"/>
<path d="M2402 2433 c-2 -45 1 -53 16 -53 11 0 13 3 5 8 -6 4 -13 28 -16 52
l-4 45 -1 -52z"/>
<path d="M2926 2467 c3 -10 9 -15 12 -12 3 3 0 11 -7 18 -10 9 -11 8 -5 -6z"/>
<path d="M3722 2433 c-2 -45 1 -53 16 -53 11 0 13 3 5 8 -6 4 -13 28 -16 52
l-4 45 -1 -52z"/>
<path d="M3822 2468 c-17 -17 -15 -63 2 -77 24 -20 70 -10 74 17 3 16 -1 22
-15 21 -10 0 -13 -3 -5 -6 6 -2 12 -11 12 -19 0 -11 -9 -14 -32 -12 -28 2 -34
8 -36 31 -2 16 2 35 9 43 14 17 8 19 -9 2z"/>
<path d="M1661 2434 c0 -11 3 -14 6 -6 3 7 2 16 -1 19 -3 4 -6 -2 -5 -13z"/>
<path d="M1693 2400 c0 -30 2 -43 4 -27 2 15 2 39 0 55 -2 15 -4 2 -4 -28z"/>
<path d="M1860 2415 c0 -19 2 -35 4 -35 2 0 6 16 8 35 2 19 0 35 -4 35 -4 0
-8 -16 -8 -35z"/>
<path d="M1909 2412 c5 -34 6 -35 9 -8 2 16 0 32 -5 37 -5 5 -7 -7 -4 -29z"/>
<path d="M2075 2439 c-4 -6 -5 -12 -2 -15 2 -3 7 2 10 11 7 17 1 20 -8 4z"/>
<path d="M2162 2418 c-2 -34 1 -38 21 -37 15 1 17 3 5 6 -10 2 -18 17 -21 36
-4 31 -4 31 -5 -5z"/>
<path d="M2213 2415 c0 -22 2 -30 4 -17 2 12 2 30 0 40 -3 9 -5 -1 -4 -23z"/>
<path d="M2244 2435 c-3 -8 -4 -20 -2 -27 3 -7 7 -1 10 15 6 29 1 36 -8 12z"/>
<path d="M2356 2436 c3 -8 -2 -16 -13 -19 -15 -4 -15 -5 -1 -6 9 0 19 -9 21
-18 3 -10 5 -4 6 14 0 17 -3 35 -9 38 -5 3 -7 0 -4 -9z"/>
<path d="M2453 2415 c0 -22 2 -30 4 -17 2 12 2 30 0 40 -3 9 -5 -1 -4 -23z"/>
<path d="M2494 2436 c-11 -28 1 -51 25 -51 14 0 25 6 27 13 1 7 0 8 -3 2 -2
-5 -14 -10 -25 -10 -17 0 -20 5 -16 30 5 32 1 39 -8 16z"/>
<path d="M2583 2415 c0 -22 2 -30 4 -17 2 12 2 30 0 40 -3 9 -5 -1 -4 -23z"/>
<path d="M2629 2412 c5 -34 6 -35 9 -8 2 16 0 32 -5 37 -5 5 -7 -7 -4 -29z"/>
<path d="M2720 2447 c0 -4 14 -20 31 -37 33 -31 50 -40 30 -17 -6 8 -9 17 -6
20 3 4 2 5 -2 2 -3 -3 -17 5 -30 17 -13 12 -23 18 -23 15z"/>
<path d="M2975 2439 c-4 -6 -5 -12 -2 -15 2 -3 7 2 10 11 7 17 1 20 -8 4z"/>
<path d="M3016 2437 c3 -10 9 -15 12 -12 3 3 0 11 -7 18 -10 9 -11 8 -5 -6z"/>
<path d="M3089 2424 c-5 -15 -12 -31 -16 -37 -3 -6 -1 -7 4 -4 11 7 36 67 27
67 -2 0 -9 -12 -15 -26z"/>
<path d="M3298 2423 c5 -21 7 -23 10 -9 2 10 0 22 -6 28 -6 6 -7 0 -4 -19z"/>
<path d="M3333 2400 c0 -30 2 -43 4 -27 2 15 2 39 0 55 -2 15 -4 2 -4 -28z"/>
<path d="M3388 2425 c3 -19 -1 -27 -19 -34 -14 -6 -18 -10 -8 -10 30 -2 54 48
30 63 -4 3 -6 -6 -3 -19z"/>
<path d="M3423 2415 c0 -22 2 -30 4 -17 2 12 2 30 0 40 -3 9 -5 -1 -4 -23z"/>
<path d="M3469 2412 c5 -34 6 -35 9 -8 2 16 0 32 -5 37 -5 5 -7 -7 -4 -29z"/>
<path d="M3508 2415 c2 -19 6 -35 8 -35 2 0 4 16 4 35 0 19 -4 35 -8 35 -4 0
-6 -16 -4 -35z"/>
<path d="M3630 2415 c0 -19 2 -35 4 -35 2 0 6 16 8 35 2 19 0 35 -4 35 -4 0
-8 -16 -8 -35z"/>
<path d="M3679 2412 c5 -34 6 -35 9 -8 2 16 0 32 -5 37 -5 5 -7 -7 -4 -29z"/>
<path d="M3923 2415 c0 -22 2 -30 4 -17 2 12 2 30 0 40 -3 9 -5 -1 -4 -23z"/>
<path d="M4063 2418 c1 -23 7 -33 20 -34 11 -1 12 0 3 3 -8 2 -17 17 -20 34
-6 28 -6 28 -3 -3z"/>
<path d="M4112 2420 c0 -19 2 -27 5 -17 2 9 2 25 0 35 -3 9 -5 1 -5 -18z"/>
<path d="M4153 2400 c0 -30 1 -47 4 -38 2 9 14 18 26 20 23 3 36 43 20 59 -6
6 -8 -2 -5 -21 4 -25 1 -30 -16 -30 -16 0 -22 8 -25 33 -2 18 -4 8 -4 -23z"/>
<path d="M2932 2416 c-8 -17 -21 -26 -44 -29 l-33 -4 32 -1 c25 -2 37 4 49 23
9 14 15 28 12 30 -3 3 -10 -6 -16 -19z"/>
<path d="M3050 2435 c0 -5 5 -17 10 -25 5 -8 10 -10 10 -5 0 6 -5 17 -10 25
-5 8 -10 11 -10 5z"/>
<path d="M1571 2420 c-2 -39 56 -54 80 -22 11 14 11 15 -1 5 -23 -21 -60 -16
-70 10 -5 13 -9 16 -9 7z"/>
<path d="M3121 2419 c-1 -22 24 -42 46 -36 14 4 13 5 -5 6 -13 1 -26 10 -32
24 -6 15 -9 17 -9 6z"/>
<path d="M3241 2419 c-1 -22 24 -42 46 -36 14 4 13 5 -5 6 -13 1 -26 10 -32
24 -6 15 -9 17 -9 6z"/>
<path d="M3971 2414 c0 -11 3 -14 6 -6 3 7 2 16 -1 19 -3 4 -6 -2 -5 -13z"/>
<path d="M4031 2414 c0 -11 3 -14 6 -6 3 7 2 16 -1 19 -3 4 -6 -2 -5 -13z"/>
<path d="M2704 2400 c1 -9 12 -16 26 -17 21 -1 21 -1 3 3 -12 3 -24 11 -26 17
-2 7 -3 5 -3 -3z"/>
<path d="M2073 2400 c2 -8 12 -16 23 -17 13 -2 15 -1 4 4 -8 3 -19 11 -23 17
-6 7 -7 6 -4 -4z"/>
<path d="M1725 2390 c-16 -7 -17 -9 -3 -9 9 -1 20 4 23 9 7 11 7 11 -20 0z"/>
<path d="M1788 2388 c6 -6 18 -8 28 -6 14 3 12 5 -9 10 -19 3 -25 2 -19 -4z"/>
<path d="M2978 2388 c6 -6 18 -8 28 -6 14 3 12 5 -9 10 -19 3 -25 2 -19 -4z"/>
<path d="M3558 2388 c6 -6 18 -8 28 -6 14 3 12 5 -9 10 -19 3 -25 2 -19 -4z"/>
<path d="M2258 2383 c6 -2 18 -2 25 0 6 3 1 5 -13 5 -14 0 -19 -2 -12 -5z"/>
<path d="M3998 2383 c6 -2 18 -2 25 0 6 3 1 5 -13 5 -14 0 -19 -2 -12 -5z"/>
</g>
</svg>
